<svg width="122" height="99" viewBox="0 0 122 99" fill="none" xmlns="http://www.w3.org/2000/svg">
<g filter="url(#filter0_d_18_116)">
<path d="M62.168 0.292986C31.2057 -0.421187 5.67296 18.0264 5.13133 41.508C4.89752 51.6445 9.36946 61.0308 16.9965 68.5064C14.0218 78.7433 4.65721 87.7082 4.54537 87.8079C4.0528 88.2668 3.90539 88.9586 4.17591 89.5783C4.44643 90.1979 5.05106 90.5799 5.75176 90.5961C20.2694 90.931 31.3021 84.6832 36.7812 80.8018C43.8835 83.4807 51.7986 85.115 60.207 85.309C91.1693 86.0232 116.702 67.5755 117.244 44.094C117.785 20.6124 93.1303 1.00716 62.168 0.292986Z" fill="black" fill-opacity="0.51" shape-rendering="crispEdges"/>
</g>
<defs>
<filter id="filter0_d_18_116" x="0.0420074" y="0.272931" width="121.21" height="98.3361" filterUnits="userSpaceOnUse" color-interpolation-filters="sRGB">
<feFlood flood-opacity="0" result="BackgroundImageFix"/>
<feColorMatrix in="SourceAlpha" type="matrix" values="0 0 0 0 0 0 0 0 0 0 0 0 0 0 0 0 0 0 127 0" result="hardAlpha"/>
<feOffset dy="4"/>
<feGaussianBlur stdDeviation="2"/>
<feComposite in2="hardAlpha" operator="out"/>
<feColorMatrix type="matrix" values="0 0 0 0 0 0 0 0 0 0 0 0 0 0 0 0 0 0 0.25 0"/>
<feBlend mode="normal" in2="BackgroundImageFix" result="effect1_dropShadow_18_116"/>
<feBlend mode="normal" in="SourceGraphic" in2="effect1_dropShadow_18_116" result="shape"/>
</filter>
</defs>
</svg>

